<svg width="140" height="109" viewBox="0 0 140 109" fill="none" xmlns="http://www.w3.org/2000/svg">
<g clip-path="url(#clip0_3313_24184)">
<path d="M138.794 13.7816C135.041 6.26437 121.283 5.01149 101.27 10.023C92.5144 2.50575 82.508 0 71.2508 0C41.2317 0 16.2157 23.8046 16.2157 53.8736V55.1264C2.45692 68.9081 -2.54627 80.1839 1.20613 87.7012C3.70772 92.7126 9.96171 95.2184 18.7173 95.2184C22.4697 95.2184 26.2221 95.2184 31.2253 93.9655H33.7269C43.7332 102.736 56.2412 109 71.2508 109C101.27 109 125.035 85.1954 125.035 55.1264C125.035 52.6207 125.035 48.8621 123.784 46.3563C137.543 32.5747 142.546 21.2989 138.794 13.7816ZM71.2508 6.26437C95.016 6.26437 115.029 23.8046 117.53 46.3563C113.778 48.8621 110.026 52.6207 106.273 55.1264C105.022 53.8736 102.521 52.6207 100.019 52.6207C95.016 52.6207 91.2636 56.3793 91.2636 61.3908C91.2636 62.6437 91.2636 63.8966 92.5144 65.1494C88.762 67.6552 85.0096 68.908 81.2572 71.4138C66.2476 78.931 51.238 85.1954 38.7301 88.954C28.7237 80.1839 23.7205 67.6552 23.7205 53.8736C23.7205 27.5632 44.9841 6.26437 71.2508 6.26437ZM3.70772 86.4483C1.20613 81.4368 4.95852 71.4138 16.2157 60.1379C17.4665 71.4138 22.4697 82.6897 29.9745 90.2069C16.2157 92.7126 7.46012 91.4598 3.70772 86.4483ZM71.2508 101.483C59.9936 101.483 49.9872 97.7241 42.4825 91.4598C54.9904 87.7012 70 82.6897 83.7588 73.9196C87.5112 71.4138 91.2636 70.1609 95.016 67.6552C96.2668 68.9081 98.7684 70.1609 101.27 70.1609C106.273 70.1609 110.026 66.4023 110.026 61.3908V57.6322C113.778 55.1264 116.28 52.6207 120.032 50.1149V53.8736C117.53 80.1839 96.2668 101.483 71.2508 101.483ZM123.784 41.3448C120.032 28.8161 113.778 18.7931 105.022 11.2759C121.283 7.51724 132.54 8.77012 136.292 15.0345C138.794 20.046 133.791 30.069 123.784 41.3448Z" fill="black"/>
</g>
<defs>
<clipPath id="clip0_3313_24184">
<rect width="140" height="109" fill="white"/>
</clipPath>
</defs>
</svg>
